<?xml version="1.0" encoding="UTF-8"?>
<svg version="1.1" viewBox="0 0 200 200" xmlns="http://www.w3.org/2000/svg">
<path d="m108.68 161.5-0.8417-2.5h-3.6667l-0.33334-0.75-0.33333-0.75-6.4527-3.5851-6.5473 6.6153-5 3.0976-11.593 2.714-16.16-2.1335-1.2668-2.0497-5.48-1.3754v-1.7832h-3.0013l-10.924-11.189-1.2097-3.8113h-1.7063l-1.3178-6h-1.8411l-0.0124-3.5-1.4938-2.8643-1.4938-2.8643v-5.7714h-2v-27h2v-6.1914l3.5-6.3086 1.1921-1 0.69442-2.8352 0.69442-2.8352 4.9191-4.5589v-2.4501l4.5-3.754 2.286-0.066539 1.1512-3h4.0628v-1.6049l9.5-3.405 15.271 0.0098 5.7286 2.9877 1.75 0.0062 1.75 0.006213v2h1.9619l1.2549-5h2.7832v-1.8652l4-1.2696v-2.8652h3.786l1.0788-2.8114 6.1122-1.3425 1.141-1.8461h17.882v2h3.8333l0.33334 0.75 0.33333 0.75 12 8c-15.187 49.19 43.924 102.83-32.825 104z" fill="#dde8f1"/>
<path d="m120.26 161.32-11.584 0.17665-0.8417-2.5h-3.6667l-0.33334-0.75-0.33333-0.75-6.4527-3.5851-6.5473 6.6153-5 3.0976-11.593 2.714-16.16-2.1335-1.2668-2.0497-5.48-1.3754v-1.7832h-3.0013l-10.924-11.189-1.2097-3.8113h-1.7063l-1.3178-6h-1.8411l-0.0124-3.5-1.4938-2.8643-1.4938-2.8643v-5.7714h-2v-27h2v-6.1914l3.5-6.3086 1.1921-1 0.69442-2.8352 0.69442-2.8352 4.9191-4.5589v-2.4501l4.5-3.754 2.286-0.066539 1.1512-3h4.0628v-1.6049l9.5-3.405 15.271 0.0098 5.7286 2.9877 1.75 0.0062 1.75 0.006213v2h1.9619l1.2549-5h2.7832v-1.8652l4-1.2696v-2.8652h3.786l1.0788-2.8114 6.1122-1.3425 1.141-1.8461h17.882v2h3.8333l0.33334 0.75 0.33333 0.75 12 8c37.414 27.281 12.426 97.937-21.241 103.82zm8.7413-5.3234v-1h-0.88197l-1.2361 2h2.118zm-82-23.5v-1.5h-3v1.8333l2.5 1.0088 0.25 0.0789 0.25 0.07899zm72.749-3.5 0.40325-1.5-1.6523 2.2984-5 1.0189 5.8458-0.31726zm-73.067-3.7275 0.18244-4.7275 2.1351-0.71171v-9.6667l1.25-0.58334 1.25-0.58333-1.25-0.58333-1.25-0.58334v-2.8333h2v-5.6l2.4-2.4h-2.6449l2.3284-2.8055-2.5835-1.0422 2.297-1.6523 1.4431-11.577-3.5501-3.9228h-5.9735l-5.2165 5.6478-2.6215 4.5196-0.10472 13.111-0.10472 13.111 2.3309 0.77699v3.8333h2v5.8333l2.5 1.0144-3 2.3045 1.25 0.5072 1.25 0.50721v2.8333l3.5-4e-5zm68.144-43.434 3.3269 0.17207-1.5054-1.5054-1.5054-1.5054h-4.2857l-2.8571 2.8571v1.3568l3.5-1.5472zm-0.19433-5.2138 7.4513 0.12504-3.3938-3.7501h-9.572l-0.65615 1.0617-0.65616 1.0617-4.8057 1.8271v4.3555l4.1813-4.806zm30.8-2.875-0.70217-2.25-1.2492-1-5.2116-8-6.9117-7.5h-1.5008l-3-3h-4.8571v-2h-3v-2h-13v1.5982l-7.1306 2.5784-1.0834 2.8233h-2.48l-4.306 3.7346v2.2654h-3v4.1367l10.147-9.6367 2.353-0.79989 1.4258-2.2001 18.574-0.37857-3.5 1.0252v2.8534h2v2h-5v-3h-3.7832l-1.2549 5h-2.9619v3h2v2.8128l4-1.046v-1.7667h-4v-2h2.9006l0.94051-1.6806 0.94052-1.6806 3.3612 3.3612h2.8571v2h-5v2.8333l2.5 1.0088-5.382 0.1579-1.2361 2h9.118v2h5v1.5615l6.2931 2.3754 1.7069-1.0549v-3.188l1.8673 2.153 1.8673 2.153h1.2654v-4h-2v-4h-2v-4.6667l1.2121-1.2121 4.2879 4.3788 2.838 5.5h1.662v2.6l2.4 2.4h0.73478zm-16.433-14.347v-0.93077l-8-3.4659v-2.0059h3v1.7832l4.7794 1.1996 1.2677 3.3035-1.0471 1.0471zm-21-2.4026v-1h-2v2h2z" fill="#ebd4a3"/>
<path d="m127.65 160.8h-3.6543v-1.8h5v-1.7667c5.9025-0.98879 3.9807-2.5796 2.9616-7.6752l-2.9616-1.6574v-3.9006h-2v-2.2835l-5.9818-5.7165h-13.018v3.0271l-2.5 4.4515-3.5 3.256v1.9254l-9.8261 9.84-3.6739 2.5127-3 1.3414-1.4264 2.1459h-22.765l-4.8089-2.3186-3-1.1686-3.9155-2.5127-2.3754-2-6.2091-4.978v-1.6174l-5-4.6338v-1.9728l-4.8906-9.198-0.66804-3.561-0.66804-3.561-1.7733-1.0959v-7.882h-2v-16.882l2-1.2361v-7.882h2v-4.6177l2.9364-3.8823 0.0318 1.75 0.031807 1.75h-2v7h-2v26h2v5.882l0.92306 0.57048 0.92306 0.57049 1.3128 5.9771h1.8411v4.8571l3 3v2.0081l4 1.2696v1.8652h6v-6h2v-5.8333l0.9007-0.33334 0.9007-0.33333 0.53248-12.9 0.53248-12.9 2.313-1.4295 0.99943-13.771 1.749-0.64263-2.4279-4.1187 2.5-0.90536v-2.8333h-2v-10.614l-5.2901-6.3856h-5.7099v2h-2.2654l-3.7346 4.306v-2.2046l6.5-6.0921 2.5-0.009255v-2l3.5-0.0636 3.8823-2.9364h5.6177v-2h10.6l1.9 1.5892 11.534 3.7473 2.2105 2.6635h2.0564l10.52 10.861 1.3135 4.1385h1.8652v2.1429l3.1815 3.1815 1.745-2.8244h11.068l3e-3 -0.81574 3e-3 -0.81574-1.9653-3.6722 1.9826 0.51848 1.9826 0.51848v1.5335l4.1484 1.0848 0.52432 2.005 0.52433 2.005 2.5766 0.98871-1.0926-4.3504-2.681-1.5994v-2.6792l-7-5.5811 0.079-1.0702 0.0789-1.0702 1.0088 2.5h3.9326l5.4007 2.7252 18.651 1.1548-1.5757-2.4048-1.5757-2.4048v-3.0704h-1.8652l-0.59369-1.8705-0.59368-1.8705-11.713-12.007-6.2346-3.6829v-1.5688h1.882l1.2361 2h2.8145l11.879 7.6776c1.7979 118.57 23.245 70.854-14.157 103.12zm-8.5586-29.516 2.9043-1.7156v-1.5688h-3.268l-7.732 2.3166v2.6834h5.1914zm-12.406-19.034-0.45733-1.75v7l0.45733-1.75 0.45732-1.75zm12.58 49.057 1.769-0.46099 1.231 0.49804 1.231 0.49805-6-0.0741 1.769-0.46099zm-84.582-82.382 1.4591-2.9248h0.57617l-0.46506 2.4328-0.46506 2.4328-2.5642 0.98398zm3.3916-4.5081 0.078948-1.9167 1.0504 2.625-1.2083 1.2083zm80.671-27.079 1.25-0.50439 2.5 1.0088h-5z" fill="#c89d4d"/>
<path d="m129.88 159.84 5.1183-4.7435v-3.0955h-2v-2.7551l-1.4019-1.1635-1.4019-1.1635-0.62917-2.5068-0.62917-2.5068-3.469-3.3688-3.4689-3.3688v-4.1667h2v-5.5774l-11.969 0.1462-1.6204 1.9311-1.8832 6-1.8832 6-1.8788 1.547-1.8788 1.547-1.4005 2.453-1.4005 2.453-2.0364 4.5h-1.0248l-1.0248 4e-5v2.1429l-2.8571 2.8571h-1.2265l-4.1091 3.8282-11.9 4.4503-14.098-1.3103-10.502-4.9683-0.90351-0.03142-0.90351-0.03143-1.7967-2.4686-1.7967-2.4686h7.0934v-2.3425l3.31-3.6575h-2.31v-4h2.7099l0.3695-13.431 2.2067-1.3638-0.08653-6.1026-0.086526-6.1026h2.887v-8h2v-6.8333l1.25-0.51604 1.25-0.51603-4.6691-1.4121 2.3915-1.478-0.15968-12.343-0.15968-12.343-2.3389-1.4455 4.4358-3.8472v-2.1306l4-1.2696v-1.8652h11v3h4v3.1348l3.8254-1.2141 10.175 10.175v2.7381l2.0472 0.68238 1.2929 7.9672-3.0762-3.0762-1.3986-4.4067h-1.8652v4h1.7729l1.4232 9.5 1.7968 1.1136 0.65568 7.9432 0.65569 7.9432 2.1958 1.5-2.2818 1.5-0.71822 17.5 4.5-2.9e-4v-3h2v-26h-2v-6.8333l-2.0472-0.68238-1.2929-7.9672 3.8273 3.8273 1.0064 1.9988 1.0064 1.9988 2.5 0.8246v-7l-2.3541-0.7847 1.4721-2.382h5.7391l3.1429-3.1429v2.0522l7.4498 1.3976 2.2665 2.2665 2.692 7.9266 1.5917 1.9v-8.222l-4.4282-11.678-2.5718-2.6429v-1.6699l7 2.1484v1.6644h6.8333l0.50721 1.25 0.5072 1.25 2.1216-3 0.0153 1.0129 0.0153 1.0129 4.5 1.9743 0.6391 4.5 4.3609-0.1579-2.5-1.0088v-6.8333h-2.118l0.52746-0.85346 0.52747-0.85346-2.3754-6.2931h-1.5615v-4h-2.0628l-1.299-3.5-12.885-12.587 1.2466-1.2466v2.3333h3.0429l8.4571 5.4669 6.9957 5.5165c31.792 30.143 7.9293 111.26-18.614 96.856zm-28.882-21.339v-2.5h-2v5h2zm52-13.941v-2.441l2-1.2361v-6.7639l-2-1.2361v5l-2 1.2361v7.882h2zm-54.945-21.966-1.1525-11.093-5.0331-4.7024-1.369 1.4762 2.5 0.89286v6.6667l2.1954 0.7318 0.54137 6.7444 0.54137 6.7444 1.7219 1.0642 0.116 3.191 0.116 3.191 0.4876-1.9072 0.48761-1.9072zm49.7-3.8428-0.41167-1.25-4.3433-0.6391v1.9925l3.5 0.91464 1.6667 0.232zm5.245-8.25v-1.5h-2v3h2z" fill="#44554d" fill-opacity=".22147"/>
<path d="m63.962 164.14-3.5379-0.75375-9.0557-4.3838-0.93428-0.03142-0.93428-0.03143-1.7967-2.4686-1.7967-2.4686h7.0934v-2.3425l3.31-3.6575h-2.31v-4h2.7099l0.3695-13.431 2.2067-1.3638-0.08653-6.1026-0.086526-6.1026h2.887v-8h2v-6.8333l1.25-0.51604 1.25-0.51603-4.6691-1.4121 2.3915-1.478-0.15968-12.343-0.15968-12.343-2.3389-1.4455 4.4358-3.8472v-2.1306l4-1.2696v-1.8652h11v3h4v3.1348l3.8254-1.2141 10.175 10.175v2.7381l2.0472 0.68238 1.2929 7.9672-3.0762-3.0762-1.3986-4.4067h-1.8652v4h1.7729l1.4232 9.5 1.7968 1.1136 0.65568 7.9432 0.65569 7.9432 2.1958 1.5-2.2818 1.5-0.71822 17.5 4.5-2.9e-4v-3h2v-26h-2v-6.8333l-2.0472-0.68238-1.2929-7.9672 3.8273 3.8273 1.0064 1.9988 1.0064 1.9988 2.5 0.8246v-7l-2.3541-0.7847 1.4721-2.382h5.7391l3.1429-3.1429v2.0522l7.4498 1.3976 2.2665 2.2665 2.692 7.9266 1.5917 1.9v-8.222l-4.4282-11.678-2.5718-2.6429v-1.6699l7 2.1484v1.6644h6.8333l0.50721 1.25 0.5072 1.25 2.1216-3 0.0153 1.0129 0.0153 1.0129 4.5 1.9743 0.6391 4.5 4.3609-0.1579-2.5-1.0088v-6.8333h-2.118l0.52746-0.85346 0.52747-0.85346-2.3754-6.2931h-1.5615v-4h-2.0628l-1.299-3.5-12.885-12.587 1.2466-1.2466v2.3333h2.8571l2.7361 2.7361 4.4067 1.3986v1.8478l6 5.7339v1.4263l2.8571 2.8571h1.3568l-1.1185-2.9148 8.4045 8.6179 4.5 6.2159v3.2722l4.5 6.3087v32.177l-2.7318 5.8228-1.773 3-2.003 4.6506-1.2461 1.2308-1.2461 1.2308-6.3725 3.7437-0.5828 2.322-0.58279 2.322h-1.9619v2.1538l-5.8462 5.8462h-2.2166l-0.5756 1.5-0.57561 1.5h-3.786v2h-3v-2.0628l3-1.1512v-3.786h-2v-2.7551l-1.4019-1.1635-1.4019-1.1635-0.62917-2.5068-0.62917-2.5068-3.469-3.3688-3.4689-3.3688v-4.1667h2v-5.5774l-11.969 0.1462-1.6204 1.9311-1.8832 6-1.8832 6-1.8788 1.547-1.8788 1.547-1.4005 2.453-1.4005 2.453-2.0364 4.5h-1.0248l-1.0248 4e-5v2.1429l-2.8571 2.8571h-2.1429v1.8548l-11.044 5.2246-12.456 0.81195zm37.038-25.638v-2.5h-2v5h2zm55-1.5v-1h-2v2h2zm-3-12.441v-2.441l2-1.2361v-6.7639l-2-1.2361v5l-2 1.2361v7.882h2zm-54.945-21.966-1.1525-11.093-5.0331-4.7024-1.369 1.4762 2.5 0.89286v6.6667l2.1954 0.7318 0.54137 6.7444 0.54137 6.7444 1.7219 1.0642 0.116 3.191 0.116 3.191 0.4876-1.9072 0.48761-1.9072zm49.7-3.8428-0.41167-1.25-4.3433-0.6391v1.9925l3.5 0.91464 1.6667 0.232zm5.245-8.25v-1.5h-2v3h2z" fill="#724706"/>
<path d="m64.25 152.3-2.25-2.3696v-3.9294h2v-2.7551l2.7998-2.3236-0.20652-7.2857 2.4902-0.83006-2.3087-2.7818 2.974-1.1412 0.1879-9.3613 2.0634-0.6878 0.14983-3.6667 0.14983-3.6667 0.83318 5.5h2.8672l0.34435-5.5 0.14691-7 0.14691-7 0.22076-3 0.22076-3 3.9203 7.8571v2.6429h2v7.1429l1.6092 1.6092 1.6092 1.6092 1.8345-3.2781 1.4736 0.56545 1.4736 0.56546v2.6194l-1.25 0.58334-1.25 0.58333 1.25 0.58333 1.25 0.58334v9.7952l-4.9406 1.24 0.18015 1.649 0.18015 1.649-0.82337 4.75-0.82337 4.75h-1.7729v5h-2l-0.0096 2.5-7.013 7.6359-7.4774 0.53281-2.25-2.3696zm91.537-16.299 0.44031-3h1.773v-3.882l2-1.2361v-7.7639l2-1.2361v-18.882h-2v-10h-2v-6h-1.9094l-1.3744-7.5-2.7162-3.945v-3.555h-1.7667l-0.98256-3.7573 8.2493 8.4605 4.5 6.2159v3.2722l4.5 6.3087v32.177l-2.7318 5.8228-1.773 3-2.0719 4.8319-4.2293 3.6681h-0.34759zm-23.787-7.9724v-0.9096l1.8461-1.141 1.3128-5.9771h1.8411v-5.882l2-1.2361 0.0153-4.691 0.0153-4.691 0.81547 1.2852 0.81547 1.2852 8.3384 1.0051v-5.0755h2v4.5555l-3.8629 3.3075-6.637 0.63694-0.6391 4.5h-1.5992l-0.58009 3.5747-0.5801 3.5747-2.5755 5.8185-1.263 0.48466-1.263 0.48465zm-7-11.055-1.5-0.97242 2.5173-1.6287 0.86164-7.4356 0.86163-7.4356 0.0228 13-0.63168 2.7224-0.63169 2.7224-1.5-0.97241zm-11-3.4724v-1.5h2v3h-2zm39.195-9 0.037-3 0.92198 3.5381-0.49804 1.231-0.49805 1.231 0.0371-3zm-14.116-4.0833 0.0789-1.9167 1.0504 2.625-0.60416 0.60417-0.60417 0.60416 0.0789-1.9167zm-12.921-4.4167v-2.5l1.0088 2.5-1.0088 2.5zm11.094-1.5 0.0202-4 0.8698 4.5233-0.45508 1.7383-0.4551 1.7383 0.0202-4zm-13.173-2.0833 0.0789-1.9167 1.0504 2.625-0.60416 0.60417-0.60417 0.60417 0.079-1.9167zm10.921-3.4167v-1h2v2h-2zm-2.921-6.5833 0.0789-1.9167 1.0504 2.625-0.60416 0.60417-0.60417 0.60417 0.0789-1.9167z"/>
</svg>
