<?xml version="1.0" encoding="UTF-8"?>
<svg version="1.1" viewBox="0 0 200 200" xmlns="http://www.w3.org/2000/svg">
<path d="m39.528 172.75-0.40883-1.25-3.9933-34-4.1115-36-0.7109-11-2.5213-26-2.4398-20.594 1.2125-0.7494 20.945-2.2919 46.167-5.8649h10.284l47.429-6h6.4859l0.58595 1.8461 0.58594 1.8461 1.8208 17.808 5.3333 29 0.96688 6 3.5783 12 2.1263 8 2.1263 8 6.2567 23 1.9062 8 2.2608 11.693-1.9563 3.5765-1.9563 3.5765-7.8641 4.0394-36.052 1.5304-18.084 2.0946-37.657 2.99h-41.905z" fill="#fef590"/>
<path d="m64.708 171.6 18.208-2.1775 1.5844-1.6513-6 0.92367 2.5517-0.84665-0.27586-1.6717-0.27586-1.6717-2-1.4694 4.3652-0.0306 1.2788-4.029 0.93167 0.5758 0.93167 0.57581-0.60974 2.4294-0.60974 2.4294 3.3271 1.2767-0.96746 2.5212 4.5467-0.27924-0.1942-3 5.7751-0.65939-1.2124 3.1594 4.4372-0.1418 30-3.6191-1.25-0.11953-1.25-0.11964v-3l2.5-0.0306-2.7135-1.7194 1.2186-0.75312 1.2186-0.75311 1.5264 2.4698 0.62824-1.0165 0.62825-1.0165-1.2205-3.1805h2.214v-3.118l2.5 1.4114-2.5-2.6934v-3.4128l2.0539 0.5371 2.0539 0.53711 3.8922-4.1778v-1.917l-2.0198-0.67327 5.1923-7.6412 2.8275 1.085v-1.4561l4.268-2.6654 0.81161 1.3132 0.8116 1.3132 1.4298-1.4298-3.631-4.0123h2.6525l3.6575 3.31v-2.524l3.2227 1.2367-0.63423-1.6528-0.63423-1.6528 1.3064 1.0842 1.3064 1.0842 2.9329-1.8856-1.5-1.019-1.5-1.019 3.3036-2.5388-1.0367-5.4232h2.4664l-0.98812 3.7786 0.86212 1.3607 0.86211 1.3607 0.0153-4.309 0.0153-4.309-1.9771 1.2219 0.61834-1.6114 0.61835-1.6114-1.6878-15.691-1.6878-15.691-1.446-12.5-1.446-12.5-0.63759-4-0.6376-4 1.1574 1.0409 4.1654 24.959 1.0606 5 1.0605 5 3.7807 14 4.0657 15 6.2385 23 1.9062 8 2.2608 11.693-1.9563 3.5765-1.9563 3.5765-7.8641 4.0394-36.052 1.5304-18.084 2.0946-37.657 2.99-35.343-0.2273zm73.021-8.1994-0.60417-0.60416-2.625 1.0504 3.8333 0.1578-0.60416-0.60417zm18.271-1.3448 4.5-0.80071-6-0.0752-10 1.5576 7 0.119 4.5-0.80071zm14.706-14.301-0.43337-2.25v9l0.86674-4.5zm-6.7057-12.191v-0.44099l-2-1.2361v2.118h2zm-4-2.559v-2h-0.76674l-1.046 4h1.8128zm8.6831-2.1875-0.52522-1.3125-0.0789 1.9167-0.0789 1.9167 1.2083-1.2083-0.52522-1.3125zm-4.1404-22.743-0.57533-0.9309 1.0163-0.62812 1.0163-0.62811v3.118h-0.88197zm-68.281-51.76 1.6905-1.6905 1.2479 1.2479-1.3183 2.1331h-3.3105zm-9.0394-0.86623-2.2225-1.5567v-6.6116l6.167-7.7602 1.5331-1.0148 1.014-3 3.2859 7.7442v7.9096l-5.8462 5.8462h-1.7088zm-52.556-1.11-0.66667-0.66667v-2.0667l2.3667 2.3667-1.0333 1.0333zm-8-3-0.66667-0.66667v-7.6667l11.5-0.11922 9.5-1.5637-0.0037 0.59146-0.003797 0.59146-8.9149 3.666-2.5776-1.5499 2.5422 3.1396-4.2568 1.1132-5.1896-1.9731 3.8086 4.2084-5.6326-2.1415 1.1655 3.0373h-0.6039zm6.3333-5.3333v-1h-0.88197l-1.2361 2h2.118zm3 5.059v-0.94098l1.9771-1.2219-1.1911 3.1039h-0.78602zm14.731-8.1392 0.61931-2.3683 0.87447 2.6234-2.1131 2.1131zm30.385-2.6698-0.116-1.25-3.5-0.19936 5-1.6013 2.618-0.19936-1.2562 2.0326-1.7104-1.0571-0.91936 3.5245z" fill="#fef27e"/>
<path d="m65.5 171.46 19-2.3234 13-1.1817 48-4.9345 20-2.1729 5.5-1.0931 0.0286-9.25-1.4699-13.5-1.4699-13.5-2.0944-21-2.0944-21-2.9077-25-0.63759-4-0.6376-4 1.1574 1.0409 4.1654 24.959 1.0606 5 1.0605 5 3.7807 14 4.0657 15 6.2385 23 1.9062 8 2.2608 11.693-1.9563 3.5765-1.9563 3.5765-7.8641 4.0394-36.052 1.5304-18.084 2.0946-37.657 2.99-35.343-0.221zm21.469-118.51-1.1018-2.0587 1.2256-5.5799 6.8776-6.6661 1.3656 1.3656 0.89305 10.769-4.2287 4.2287h-3.9296z" fill="#191919" fill-opacity=".2"/>
<path d="m98.25 168.31 1.75-0.45732 1.75 0.45732 1.75 0.45733h-7zm9.25-0.98454 3-0.37421 27-2.9564 16-1.1098 2.784-0.93185 14.216-1.1897 1.7055-1.5695-1.0914-9.8473-1.0914-9.8473-0.89842-4.451-1.3287-19.549-0.69142-6-0.51837-6.5-0.51838-6.5 0.49882 2 0.49883 2 2.1262 9 1.7565 5 0.44403 2.6623 0.44404 2.6623 1.9669 3.6754 1.3545 10 2.6373 10 1.2856 7.4433-4.2992 9.9937-1.3473 1.1182-1.3473 1.1182-22.586 1.8803-32 2.9699-13-0.32328zm-20.531-114.38-1.1018-2.0587 1.2256-5.5799 6.8776-6.6661 1.3656 1.3656 0.89305 10.769-4.2287 4.2287h-3.9296z" fill="#1d1c17" fill-opacity=".2"/>
<path d="m86.969 52.941-1.1018-2.0587 1.2256-5.5799 6.8776-6.6661 1.3656 1.3656 0.89305 10.769-4.2287 4.2287h-3.9296z" fill="#f1311e"/>
</svg>
