<?xml version="1.0" encoding="UTF-8"?>
<svg version="1.1" viewBox="0 0 200 200" xmlns="http://www.w3.org/2000/svg">
<path d="m57.5 153.65-8-2.2741-8-3.9779-10-5.7919-8.5-6.8502v-2.1016l3.4472-3.8091 0.13174-23.446 0.13174-23.446 1.1343-1.1343 9.3404-0.1412 1.0542-2.7473 7.2604 0.11968 13-2.1054 12.231-1.9474h7.1514l1.3203-2.1363 2.8768 1.1039 3.4209-1.8044 15-2.4599 18-1.5981 21.095-2.4418 11.905 5.5158 7 3.468 13 3.5866 5.122 3.6332 5.378 1.3498v23.665l-2.0971 1.2961 2.5971 3.1472-2.5 0.84143v19.795l-5.5 1.3139-2 1.4402-34.5 6.5997v1.5086l-8.5 1.3387-30 5.9209-3.2869 1.8-21.713 4.0076-9 1.0357z" fill="#f8ed05"/>
<path d="m57.5 153.62-8-2.236-8-3.9779-10-5.7919-8.5-6.8502v-2.1016l3.4472-3.8091 0.13174-23.446 0.13174-23.446 1.1343-1.1343 9.3404-0.1412 1.0542-2.7473 7.2604 0.11968 13-2.1054 12.231-1.9474h7.1514l1.3203-2.1363 2.8768 1.1039 3.4209-1.8044 15-2.4599 18-1.5981 21.095-2.4418 11.905 5.5158 7 3.468 13 3.5866 5.122 3.6332 5.378 1.3498v10.518l-10.5 2.3693-8 1.6229-13.5 3.516v1.5696l-1.9398-0.50726-1.9398-0.50727-19.62 4.1047-10.498 1.2844-1.0045 1.6253-9.5813 1.3178-4.9165 0.83717-11.602 1.8738-10.398 2.3719-3.4073 1.7458-0.59851-0.9684-0.59851-0.96841-4.8486 3.1769-1.3713 2.7488-1.3713 2.7488 0.36258 33.303-1.1672-0.1488-8-2.236z" fill="#b09600"/>
<path d="m53.5 150.82-7-2.0372-1.5-0.15158-1.5-0.15159-13-7.4547-7.8426-6.6905 1.2987-3.3844 5.0585 1.2696 4.7223-3.0942 5.9914 0.1704-0.11417 1.5275-0.11417 1.5275 5.2378 0.32547 6.6742 4.7524 5.5294 6.0704 0.05862 1.5397 5.0251 7.9603-1.5251-0.142-7-2.0372zm11-37.29-3-2.4591-1.3456-0.036-1.3456-0.03593-5.7671-4.1066-12.76-5.7857-5.7973-4.6077-3.9842-2.5145-4.4165-2.2685 0.58114-9.715 1.1804-1.1804 9.3404-0.1412 1.0542-2.7473 7.2604 0.11968 13-2.1054 12.231-1.9474h7.1514l1.3203-2.1363 2.8768 1.1039 3.4209-1.8044 15-2.4599 18-1.5981 21.095-2.4418 11.905 5.5158 7 3.468 13 3.5866 5.122 3.6332 5.378 1.3498v10.406l-24.5 4.4644-6 2.1093-8 1.8046-16.426 2.8356-1.6915 1.0454-11.382 0.46049v1.595l-2.7977-1.0736-1.3203 2.1364h-5.7294l-10.653 2.172-12.411 2.828-6.589 0.07087-5 2.8583-2 0.061-3-2.4591z" fill="#3f9d5f"/>
<path d="m52.191 150.44-8.3087-2.4564-8.3133-4.2411-10.398-7.8505-1.1779-3.0696 1.0085-1.6318 3.9945 1.0446 4.7404-3.106 5.9914 0.1704-0.11417 1.5275-0.11417 1.5275 5.2378 0.32547 6.6742 4.7524 5.5294 6.0704 0.02931 0.76987 0.029317 0.76982 5.0251 7.9603-1.5251-0.10645zm12.309-36.906-3-2.4591-1.3456-0.036-1.3456-0.03593-5.3877-3.8364-15.125-7.1794-3.6057-3.9842h-1.771l-5.919-4.3761v-8.3739l6.25-1.25h1.8848l-1.2899 4.0643 5.1552-5.1552v-1.9091h3v2.5212l6.0344 0.24661-0.53435-3.2377 8.9169 0.41337 1.0831-1.6557 12.693-1.4089-1.0352 1.6751 5.8423 3.353v-2.157l6.211 1.2422-0.94656-2.4922 8.5204-0.5032 1.1524 3.0032h-1.5372l-2.1743-2.1743-1.3438 2.1743 1.2361 2h3.0248l2.6132-2.6132-2.4765-3.3868h-6.3975l1.2361-2h7.882v-3h2v3.214l3.1636-1.214h3.8364v-3.0347l14.039 0.28857 0.96312 1.5584 3.998-1.0455v-2l4.1604 1.088 8.0911-2.8547h3.526l1.5567 7.5-0.23048 1.3352-0.23047 1.3352 3.4109-1.9088 4.2159 0.76065-2.6136-1.2267-4.3946-4.3947 0.65494-3.4008h2.9714l-1.4461 2.3399 3.8281-1.3448-3.2899 2.5718 2.6261 3.5914 12.373 0.65083 2.1183 2.1183-7.8274-1.093 3 2.135-1.7697 0.03062 5.0852 4h1.4178l-0.53824-2.0582-0.53823-2.0582 3.3432 0.68896-0.29384 1.7137-0.29383 1.7138 2.5877 0.044472 5 3.9111 10.618 0.044472-1.1065-1.7904 3.1521-1.2096h1.8364v7.8346l-8.5 3.1864-10 2.0093-11.429 1.8078-2.4169 1.4937-7.6541 1.6682-8.5 1.9361-19 2.2015-5.9725 2.9449-0.36099-1.083-0.36098-1.083-2.3055 1.8174-10.581 1.3457-4.4195 1.6952-10 2.1486-7 0.54934-1.3214 1.2637-1.3214 1.2637-2.3571-0.00993zm2.471-14.492 1.471-0.93031-1.3489-1.3489-5.0931 1.2783v1.9619l3.5-0.03062 1.471-0.93031zm24.688-0.55558 1.3406-1.3406v-1.1429h-4l-0.03062 2.5-0.73469-1.1494-0.73469-1.1494-6.8331 0.79847-0.86722 0.86722 1.1218 1.8151 9.3972 0.14206 1.3406-1.3406zm-15.659-0.48348v-1h-7v2h7zm21.67-0.50782 0.33547-1.0078-3.7552-2.3452v4.9593l3.0843-0.5985zm-17.22-2.354-0.95-0.86183-8.6617-2.1047 1.3254 1.3284 7.3363 2.2903 1.9 0.20971zm35.305-0.90201 0.32992-0.98975-3.0845-1.1836v2.156l-7-0.81721v2.308l9.4247-0.48366zm-22.948-1.7626-0.5598-0.5598-1.3656 3.5863 2.4852-2.4667zm-3.0777 0.92229-0.60417-0.60417-2.625 1.0504 3.8333 0.1579zm13.681-0.25047 0.5282-0.85464-4.9384-4.6393v3.9486l2.4 2.4h1.482zm34.84-0.84539 5.75-0.54035v-1.8944l4.0098 1.2727 0.60206-1.569 0.60207-1.569h3.786v-2.7667l3.5-0.90775 2.5 0.84116v3.0782l2.7465-2.2794 3.7535 1.2019-4.8152-4.2432-8.5387 0.442-3.0585-2.5383-0.95356 0.58933-0.95357 0.58934-3.169-1.2161 0.53117-0.85946 0.53118-0.85946-8.8613 0.17786-2.426-1.4994 2.7135-1.9023-2.3876-0.97695 1.1103-2.8935-3.2823 1.2595 0.63392 2.1316 0.63393 2.1316 2.8379 4.5h1.9539v3l1.5 0.15302 3.5 0.67001v-1.423l-2.5-2.6448 4.3685 2.2448h4.1315v2.882l-2.2769 1.4072-15.064 0.6725-2.6587-2.2065v2.384l-4.5-0.68658 0.51388-2.4941-5.0528 0.91624-3.94-4.2291-1.3422 1.3422 1.53 1.7561 1.53 1.7561-0.8811 2.4262 4.7597 1.1946 3.8824 0.72613 2 0.35238-5 1.6358 10-0.99488zm-73.75-2.3833v-1.4167l-4.5-0.6391v1.2235l2.5 2.8339 2-0.58502zm51.104-1.6458-0.60417-0.60417-1.2003 1.2003 1.5664 2.5346 0.84216-2.5265zm-9.2592-1.0208 0.46306-0.75-4.8081-0.28843v1.7884h3.882zm40.655-0.69098v-0.44098l-1.8618-1.1507-1.2562 2.0326h3.118zm-61-1.559v-1h-0.88197l-1.2361 2h2.118zm19.834-0.87615 1.3338-0.84552-2.6677-1.014-7 1.0899 5 1.4464 2 0.16874 1.3338-0.84552zm-9.1047-0.72802-0.60417-0.60417-2.625 1.0504 3.8333 0.1579zm37.983-1.0322 0.37831-1.1363-6.0909-2.1233v-1.8869l-8.0405-3.2172h-0.95953v3.9571l-4.7817-2.1787-3.7183 2.1607 6.19 0.06082 1.8016 1.9907 1.8016 1.9907 1.1034-1.2527 1.1034-1.2527-0.5333 0.89058 6.2399 2.6237 0.89668-0.55418 0.89669-0.55418v2.2647l3.3343-0.64665 0.37831-1.1363zm-26.841-3.464-1.3719-0.86903-1.81-0.030626 1.8794 2.0767 1.8794 2.0767 0.79492-2.3848zm4.8112 0.91284-0.52522-1.3125-0.0789 1.9167-0.079 1.9167 1.2083-1.2083-0.52522-1.3125zm3.3169 0.12848v-0.94098h-2v3.118l2-1.2361zm-18-0.27432v-1.3333h-3v1.3333l1.3333 1.3333h1.6667zm34-1.6667v-1h-2.118l1.2361 2h0.88197zm-21.863-0.7-1.3632-0.5421 2.7263-1.7273-3.5-0.030626v-3.31l-3.6575 3.31-2.8425 0.1537 8 2.6366 2 0.05182-1.3632-0.5421zm38.863-0.3v-1h-3v2h3zm-56-1v-1h-2.118l1.2361 2h0.88197zm4 0v-1h-2v2h2zm19-2.107v-0.89301h-4v1.6667l0.59777 0.59776 0.59776 0.59777 2.8045-1.0762zm3 0.16601v-0.94098l-2-1.2361v3.118h2zm12-1.059v-1h-2v2h2zm31.212 7.3642-1.7119-1.3006 7-0.03298 2.7026 1.7126-6.2788 0.92153zm-89.629-3.23-0.78322-1.2673 1.2003-1.2003 1.2083 1.2083-0.84216 2.5265zm71.917-6.1342-0.61803-1 2.618 0.030626 3 1.9387-4.382 0.030626z" fill="#5e4c0c"/>
<path d="m65.42 113.18-2.0697-1.9282-8.8505-4.2755-5-2.8066-8.5-3.4703v-1.328l-8.5-4.7317-5.5-4.0127v-7.3739l6.25-1.25h1.8848l-1.2899 4.0643 5.1552-5.1552v-1.9091h3v2.5212l6.0344 0.24661-0.53435-3.2377 8.9169 0.41337 1.0831-1.6557 12.693-1.4089-1.0352 1.6751 5.8423 3.353v-2.157l6.211 1.2422-0.94656-2.4922 8.5204-0.5032 1.1524 3.0032h-1.5372l-2.1743-2.1743-1.3438 2.1743 1.2361 2h3.0248l2.6132-2.6132-2.4765-3.3868h-6.3975l1.2361-2h7.882v-3h2v3.214l3.1636-1.214h3.8364v-3.0347l14.039 0.28857 0.96312 1.5584 3.998-1.0455v-2l4.1604 1.088 8.0911-2.8547h3.526l1.5567 7.5-0.23048 1.3352-0.23047 1.3352 3.4109-1.9088 4.2159 0.76065-2.6136-1.2267-4.3946-4.3947 0.65494-3.4008h2.9714l-1.4461 2.3399 3.8281-1.3448-3.2899 2.5718 2.6261 3.5914 12.373 0.65083 2.1183 2.1183-7.8274-1.093 3 2.135-1.7697 0.03062 5.0852 4h1.4178l-0.53824-2.0582-0.53823-2.0582 3.3432 0.68896-0.29384 1.7137-0.29383 1.7138 2.5877 0.044472 5 3.9111 10.618 0.044472-1.1065-1.7904 3.1521-1.2096h1.8364v7.8346l-8.5 3.1864-10 2.0093-11 1.8478-11 3.2442-17 2.8539-13 2.1816-6.3198 0.74361-24.68 5.9705-8 0.90106-4.01 1.3322zm1.5508-14.138 1.471-0.93031-1.3489-1.3489-5.0931 1.2783v1.9619l3.5-0.03062 1.471-0.93031zm24.688-0.55558 1.3406-1.3406v-1.1429h-4l-0.03062 2.5-0.73469-1.1494-0.73469-1.1494-6.8331 0.79847-0.86722 0.86722 1.1218 1.8151 9.3972 0.14206 1.3406-1.3406zm-15.659-0.48348v-1h-7v2h7zm21.67-0.50782 0.33547-1.0078-3.7552-2.3452v4.9593l3.0843-0.5985zm-17.22-2.354-0.95-0.86183-8.6617-2.1047 1.3254 1.3284 7.3363 2.2903 1.9 0.20971zm35.305-0.90201 0.32992-0.98975-3.0845-1.1836v2.156l-7-0.81721v2.308l9.4247-0.48366zm-22.948-1.7626-0.5598-0.5598-1.3656 3.5863 2.4852-2.4667zm-3.0777 0.92229-0.60417-0.60417-2.625 1.0504 3.8333 0.1579zm13.681-0.25047 0.5282-0.85464-4.9384-4.6393v3.9486l2.4 2.4h1.482zm34.84-0.84539 5.75-0.54035v-1.8944l4.0098 1.2727 0.60206-1.569 0.60207-1.569h3.786v-2.7667l3.5-0.90775 2.5 0.84116v3.0782l2.7465-2.2794 3.7535 1.2019-4.8152-4.2432-8.5387 0.442-3.0585-2.5383-0.95356 0.58933-0.95357 0.58934-3.169-1.2161 0.53117-0.85946 0.53118-0.85946-8.8613 0.17786-2.426-1.4994 2.7135-1.9023-2.3876-0.97695 1.1103-2.8935-3.2823 1.2595 0.63392 2.1316 0.63393 2.1316 2.8379 4.5h1.9539v3l1.5 0.15302 3.5 0.67001v-1.423l-2.5-2.6448 4.3685 2.2448h4.1315v2.882l-2.2769 1.4072-15.064 0.6725-2.6587-2.2065v2.384l-4.5-0.68658 0.51388-2.4941-5.0528 0.91624-3.94-4.2291-1.3422 1.3422 1.53 1.7561 1.53 1.7561-0.8811 2.4262 4.7597 1.1946 3.8824 0.72613 2 0.35238-5 1.6358 10-0.99488zm-73.75-2.3833v-1.4167l-4.5-0.6391v1.2235l2.5 2.8339 2-0.58502zm51.104-1.6458-0.60417-0.60417-1.2003 1.2003 1.5664 2.5346 0.84216-2.5265zm-9.2592-1.0208 0.46306-0.75-4.8081-0.28843v1.7884h3.882zm40.655-0.69098v-0.44098l-1.8618-1.1507-1.2562 2.0326h3.118zm-61-1.559v-1h-0.88197l-1.2361 2h2.118zm19.834-0.87615 1.3338-0.84552-2.6677-1.014-7 1.0899 5 1.4464 2 0.16874 1.3338-0.84552zm-9.1047-0.72802-0.60417-0.60417-2.625 1.0504 3.8333 0.1579zm37.983-1.0322 0.37831-1.1363-6.0909-2.1233v-1.8869l-8.0405-3.2172h-0.95953v3.9571l-4.7817-2.1787-3.7183 2.1607 6.19 0.06082 1.8016 1.9907 1.8016 1.9907 1.1034-1.2527 1.1034-1.2527-0.5333 0.89058 6.2399 2.6237 0.89668-0.55418 0.89669-0.55418v2.2647l3.3343-0.64665 0.37831-1.1363zm-26.841-3.464-1.3719-0.86903-1.81-0.030626 1.8794 2.0767 1.8794 2.0767 0.79492-2.3848zm4.8112 0.91284-0.52522-1.3125-0.0789 1.9167-0.079 1.9167 1.2083-1.2083-0.52522-1.3125zm3.3169 0.12848v-0.94098h-2v3.118l2-1.2361zm-18-0.27432v-1.3333h-3v1.3333l1.3333 1.3333h1.6667zm34-1.6667v-1h-2.118l1.2361 2h0.88197zm-21.863-0.7-1.3632-0.5421 2.7263-1.7273-3.5-0.030626v-3.31l-3.6575 3.31-2.8425 0.1537 8 2.6366 2 0.05182-1.3632-0.5421zm38.863-0.3v-1h-3v2h3zm-56-1v-1h-2.118l1.2361 2h0.88197zm4 0v-1h-2v2h2zm19-2.107v-0.89301h-4v1.6667l0.59777 0.59776 0.59776 0.59777 2.8045-1.0762zm3 0.16601v-0.94098l-2-1.2361v3.118h2zm12-1.059v-1h-2v2h2zm31.212 7.3642-1.7119-1.3006 7-0.03298 2.7026 1.7126-6.2788 0.92153zm-89.629-3.23-0.78322-1.2673 1.2003-1.2003 1.2083 1.2083-0.84216 2.5265zm71.917-6.1342-0.61803-1 2.618 0.030626 3 1.9387-4.382 0.030626z" fill="#04753b"/>
<path d="m65.285 113.05-1.9344-1.8022-8.8505-4.2755-5-2.8066-8.5-3.4703v-1.3784l-9.5-5.3118-3.4931-2.7215-1.2445-6.2227 6.2111 0.43813 0.48187 1.25 0.48187 1.25h2.6183l3.3333 3.893 8.0268 2.1614 1.2025 1.9456h2.9217l8.2132 5.1848 4.7029-0.89902 0.58943 1.8571 0.58942 1.8571h3.928l1.2156 3.1677 1.5793-2.5554 8.2742-0.20759 1.3682-2.1351 4.5-1.4043v2.0105l3.8616-0.29088-0.3616-2.0373 4.3453-0.66631 0.65467 4.4622 2.8187 0.92956-1.2559-3.2729h3.0553l-1.2361-2h2.118v2h2v-4.2168l4.6323 1.1626 4.233-2.9649 0.32732 2.7595 0.32733 2.7595 3.1774-5.7701 3.3026 4.7151v-4.5078l3.2476-1.2462 0.91904 1.6422 0.91903 1.6422 3.9616 2.1202 3.0956-3.0956h1.8571v1.9372l3.1149-1.1953-1.092-2.8458 1.8063 1.1163 0.3378-1.0134 0.33781-1.0134 7.9952-0.92573 9.2394-1.2906 1.5887 2.5706-3.5508-1.3626 1.1599 3.0227-3.4372 0.30463-2 0.26992-5.3417 3.5518-9.6583 0.75991v0.33303l-6.5258 0.54801-1.0922-1.7673h-5.7639l-1.4461 2.3399 3.3281-1.2771v1.9372l-2.5 0.1666-4 0.6977-4 0.98261-1 0.36495-5.6007-0.37323-2.8117 2.3335-0.97471-0.6024-0.9747-0.6024-1.3405 2.169-2.6519-1.0176-6.6458 2.1845-1.5 0.51501-1.5 0.515-10.897 0.35747-0.76862 2.3059-4.8345-1.2133v2.0028l-2.7806 1.067zm21.715-5.596v-1.2408l-2.5-0.8699-3.3623 3.5182 5.8623-0.1666v-1.2408zm6.9847-2.7638 0.015313-0.80901-2 1.2361 0.01531 1.691 0.015316 1.691 1.9387-3 0.01531-0.80902zm16.777-3.7008-1.2552-2.0099-0.6774 2.0322-2.3292-1.1608 3.8823 3.1483h1.6347zm22.238-0.43111v-0.44099l-2-1.2361v2.118h2zm-11-2.559v-1h-2v2h2zm-43 5v-1h2.118l-1.2361 2h-0.88197zm46-6.4648v-0.46482l4-2.1407v3.0704h-4zm32-1.5352v-1h1.882l1.2361 2h-3.118zm5.6719-0.99162 1.1718-1.2521-1.0577-2.7563h1.3568l3.0184 3.0184 2.013-1.2441-2.1743-2.1743v-2.6h2.118l-1.4163 2.2917 5.2983-1.3298-0.0444 1.5381-3.5037 4.5524-7.9519 1.2081 1.1719-1.2521zm12.036-3.9175 2.2075-1.8426-1.415-1.6823 3.5247 2.6994-1.1348 1.3673-1.1348 1.3673-4.2551-0.066539zm-130.71-6.1499v-1.059l2 1.2361v0.88197h-2z" fill="#043b15"/>
</svg>
